#!OML:ASF H:\ManfredETheater\Project 1\Capture day 1\Session 1\subject.ASF
:FULLY-SPECIFIED
:DEGREES
66
root 2.52771 15.6783 4.65991 -178.211 -34.172 -155.453
lowerback 15.6936 1.43722 13.4246
upperback -0.752155 4.35092 7.24655
thorax -9.26523 1.28853 -0.544667
lowerneck -19.8858 0.789767 1.39571
upperneck 11.193 1.34433 -4.3678
head 6.69203 0.293049 -1.49741
rclavicle -9.93923e-015 -3.51849e-014
rhumerus -40.1253 14.5317 -75.9504
rradius 99.2252
rwrist -4.96668
rhand -27.0866 14.5109
rfingers 7.12502
rthumb -0.503768 -15.4683
lclavicle -9.93923e-015 -3.51849e-014
lhumerus -61.6636 -11.3461 95.2024
lradius 109.056
lwrist 16.3288
lhand -16.8076 -12.2187
lfingers 7.12502
lthumb 9.42098 17.5508
rfemur 2.77998 -9.1735 26.8888
rtibia 35.1152
rfoot -0.502373 -11.6294
rtoes -52.972
lfemur -71.0942 14.1311 -18.8361
ltibia 85.7213
lfoot -20.0197 -10.734
ltoes -11.5326
67
root 2.35166 15.7328 4.14051 -179.249 -35.883 -154.251
lowerback 15.403 1.39297 13.5486
upperback -0.825308 4.28634 7.17733
thorax -9.17529 1.26376 -0.666669
lowerneck -20.1495 0.230871 0.860504
upperneck 11.4338 0.585484 -3.31228
head 6.78236 0.00168882 -1.15419
rclavicle 4.81556e-014 2.78299e-014
rhumerus -41.3134 14.4833 -76.9124
rradius 99.0494
rwrist -5.37116
rhand -27.4847 14.5361
rfingers 7.12502
rthumb -0.888264 -15.4418
lclavicle 4.81556e-014 2.78299e-014
lhumerus -62.2362 -11.3709 95.2412
lradius 109.903
lwrist 15.7329
lhand -16.8309 -12.2518
lfingers 7.12502
lthumb 9.39852 17.5186
rfemur 5.06025 -7.90104 28.5113
rtibia 32.8493
rfoot 5.03688 -10.3468
rtoes -51.4898
lfemur -72.0093 13.2745 -19.426
ltibia 82.5233
lfoot -19.0086 -12.3142
ltoes -11.3006
68
root 2.1714 15.7698 3.62359 -180.288 -37.5459 -153.066
lowerback 15.0897 1.35877 13.6689
upperback -0.875499 4.22503 7.08226
thorax -9.0443 1.24383 -0.815839
lowerneck -20.3925 -0.352 0.312223
upperneck 11.5907 -0.200252 -2.30986
head 6.85517 -0.306554 -0.829826
rclavicle 5.11622e-014 -6.55989e-015
rhumerus -42.5613 14.321 -77.8053
rradius 98.5723
rwrist -5.74412
rhand -27.901 14.4947
rfingers 7.12502
rthumb -1.2903 -15.4812
lclavicle 5.11622e-014 -6.55989e-015
lhumerus -62.53 -11.4321 95.3418
lradius 110.578
lwrist 15.0369
lhand -16.9381 -12.3292
lfingers 7.12502
lthumb 9.29508 17.4459
rfemur 6.86411 -6.48311 30.1781
rtibia 31.15
rfoot 10.5736 -8.60946
rtoes -49.3745
lfemur -72.7092 12.42 -20.1163
ltibia 79.6108
lfoot -17.5711 -14.0293
ltoes -10.9652
69
root 1.98315 15.8031 3.10757 -181.322 -39.1775 -151.947
lowerback 14.7745 1.33029 13.751
upperback -0.897793 4.15967 6.9591
thorax -8.8817 1.22713 -0.975031
lowerneck -20.5839 -0.94958 -0.238332
upperneck 11.6476 -0.997514 -1.38323
head 6.89998 -0.62648 -0.531595
rclavicle -1.79062e-014 -4.5267e-014
rhumerus -43.8519 14.0462 -78.6236
rradius 97.8178
rwrist -6.07594
rhand -28.2804 14.3562
rfingers 7.12502
rthumb -1.65671 -15.6171
lclavicle -1.79062e-014 -4.5267e-014
lhumerus -62.5397 -11.5359 95.5093
lradius 111.107
lwrist 14.3846
lhand -17.1422 -12.423
lfingers 7.12502
lthumb 9.09816 17.3607
rfemur 8.15026 -5.09351 31.7939
rtibia 30.2524
rfoot 15.3765 -6.52774
rtoes -46.622
lfemur -73.0733 11.5946 -20.9386
ltibia 77.0207
lfoot -15.8065 -15.7588
ltoes -10.3433
70
root 1.78793 15.8288 2.59509 -182.3 -40.7676 -150.949
lowerback 14.4553 1.30407 13.7739
upperback -0.894446 4.08314 6.80217
thorax -8.69079 1.21135 -1.1377
lowerneck -20.6972 -1.54009 -0.778233
upperneck 11.5937 -1.77495 -0.554781
head 6.90755 -0.945487 -0.264914
rclavicle 4.28629e-014 3.57812e-014
rhumerus -45.163 13.6884 -79.374
rradius 96.8133
rwrist -6.36785
rhand -28.5703 14.1152
rfingers 7.12502
rthumb -1.93669 -15.8558
lclavicle 4.28629e-014 3.57812e-014
lhumerus -62.2734 -11.6443 95.7345
lradius 111.51
lwrist 13.8387
lhand -17.4073 -12.5235
lfingers 7.12502
lthumb 8.84234 17.2712
rfemur 8.84818 -3.9738 33.2093
rtibia 30.3649
rfoot 18.9247 -4.33732
rtoes -43.589
lfemur -73.144 10.8065 -21.9224
ltibia 74.8474
lfoot -13.8177 -17.3457
ltoes -9.3625
71
root 1.58557 15.849 2.08734 -183.18 -42.3025 -150.132
lowerback 14.1427 1.27783 13.7019
upperback -0.8668 3.99021 6.61078
thorax -8.48224 1.19514 -1.28442
lowerneck -20.7067 -2.09965 -1.28949
upperneck 11.4298 -2.50072 0.154382
head 6.87135 -1.25044 -0.0351785
rclavicle -3.88624e-014 -6.26172e-014
rhumerus -46.4771 13.2712 -80.073
rradius 95.5853
rwrist -6.64755
rhand -28.7362 13.7823
rfingers 7.12502
rthumb -2.09689 -16.1872
lclavicle -3.88624e-014 -6.26172e-014
lhumerus -61.7657 -11.7189 96.0167
lradius 111.815
lwrist 13.436
lhand -17.6635 -12.5786
lfingers 7.12502
lthumb 8.59506 17.2264
rfemur 8.97355 -3.30964 34.2872
rtibia 31.5178
rfoot 21.1034 -2.39232
rtoes -40.6195
lfemur -72.8967 10.0966 -23.0858
ltibia 73.1025
lfoot -11.7393 -18.6705
ltoes -8.09433
72
root 1.37587 15.865 1.58414 -183.994 -43.7818 -149.52
lowerback 13.8916 1.24014 13.5184
upperback -0.801421 3.87213 6.39603
thorax -8.27537 1.17347 -1.39374
lowerneck -20.6028 -2.60968 -1.76074
upperneck 11.1681 -3.14986 0.727057
head 6.79027 -1.53123 0.153869
rclavicle 8.59744e-014 -3.26007e-014
rhumerus -47.7755 12.8186 -80.7231
rradius 94.1586
rwrist -6.95248
rhand -28.7557 13.3787
rfingers 7.12502
rthumb -2.11579 -16.5906
lclavicle 8.59744e-014 -3.26007e-014
lhumerus -61.0425 -11.7163 96.3651
lradius 112.021
lwrist 13.1556
lhand -17.912 -12.6141
lfingers 7.12502
lthumb 8.35525 17.2007
rfemur 8.63266 -3.21197 34.9504
rtibia 33.6642
rfoot 22.0508 -0.946891
rtoes -38.0095
lfemur -72.2441 9.49991 -24.3851
ltibia 71.7817
lfoot -9.69472 -19.7237
ltoes -6.47756
73
root 1.15853 15.8771 1.08741 -184.709 -45.1759 -149.113
lowerback 13.6979 1.19618 13.2469
upperback -0.713857 3.74084 6.16184
thorax -8.08256 1.14884 -1.47566
lowerneck -20.3802 -3.05612 -2.18208
upperneck 10.8359 -3.70716 1.16502
head 6.66909 -1.78008 0.303771
rclavicle 4.46272e-014 2.44505e-014
rhumerus -49.0482 12.343 -81.3341
rradius 92.55
rwrist -7.30382
rhand -28.6587 12.9284
rfingers 7.12502
rthumb -2.02206 -17.0417
lclavicle 4.46272e-014 2.44505e-014
lhumerus -60.1451 -11.6069 96.7771
lradius 112.123
lwrist 12.9488
lhand -18.1422 -12.6134
lfingers 7.12502
lthumb 8.13311 17.21
rfemur 7.88869 -3.65924 35.1712
rtibia 36.6267
rfoot 22.0704 -0.0925265
rtoes -36.0008
lfemur -71.2024 9.04852 -25.7579
ltibia 70.8352
lfoot -7.7556 -20.5057
ltoes -3.77037
